# xmcd CD database file
#
# Track frame offsets:
#	150
#	5475
#	27261
#	51106
#	75627
#	109080
#	126172
#	152946
#	167122
#	184285
#	207254
#	224766
#
# Disc length: 3317 seconds
#
# Revision: 0
# Processed by: cddbd v1.5.1PL0 Copyright (c) Steve Scherf et al.
# Submitted via: CDex 1.51
#
DISCID=a90cf30c
DTITLE=PING-Music Label - メトロポリタン
DYEAR=1900
DGENRE=サウンドトラック (一般/日本)
TTITLE0=Waiting For You
TTITLE1=サクラチル
TTITLE2=花右京メイド商会 (ビッグファイトご奉仕mix)
TTITLE3=ごった煮幕の内
TTITLE4=旅にグルメに温泉に
TTITLE5=頭文字Mako
TTITLE6=さよなら友枝町(b.o.s. mix)
TTITLE7=忍者寿司阿修羅の章
TTITLE8=ミスタープリンセス
TTITLE9=Honey Noise
TTITLE10=しげるパラダイス
TTITLE11=ボーナストラック
EXTD=
EXTT0=
EXTT1=
EXTT2=
EXTT3=
EXTT4=
EXTT5=
EXTT6=
EXTT7=
EXTT8=
EXTT9=
EXTT10=
EXTT11=
PLAYORDER=
